nColumns=19
nRows=96
DataType=double
version=3
OpenSimVersion=4.1
endheader
time	ground_force_1_vx	ground_force_1_vy	ground_force_1_vz	ground_force_1_px	ground_force_1_py	ground_force_1_pz	ground_force_1_mx	ground_force_1_my	ground_force_1_mz	ground_force_2_vx	ground_force_2_vy	ground_force_2_vz	ground_force_2_px	ground_force_2_py	ground_force_2_pz	ground_force_2_mx	ground_force_2_my	ground_force_2_mz
0.895	0	0	0	1.32291	0	-0.231961	0	0	0	0	0	0	0.217849	0	-0.318368	0	0	0
0.9	0	0	0	1.34468	0	-0.233285	0	0	0	0	0	0	0.203232	0	-0.315624	0	0	0
0.905	0	0	0	1.36368	0	-0.234649	0	0	0	0	0	0	0.190386	0	-0.313351	0	0	0
0.91	0	0	0	1.37959	0	-0.235505	0	0	0	0	0	0	0.175506	0	-0.311863	0	0	0
0.915	0	0	0	1.39352	0	-0.23637	0	0	0	0	0	0	0.164563	0	-0.310849	0	0	0
0.92	0	0	0	1.40354	0	-0.23742	0	0	0	0	0	0	0.157455	0	-0.310445	0	0	0
0.925	0	0	0	1.41052	0	-0.238891	0	0	0	0	0	0	0.151996	0	-0.308935	0	0	0
0.93	0	0	0	1.41444	0	-0.240143	0	0	0	0	0	0	0.149651	0	-0.310824	0	0	0
0.935	0	0	0	1.41553	0	-0.241224	0	0	0	0	0	0	0.150164	0	-0.312549	0	0	0
0.94	0	0	0	1.41386	0	-0.242128	0	0	0	0	0	0	0.153173	0	-0.313299	0	0	0
0.945	0	0	0	1.41016	0	-0.243041	0	0	0	0	0	0	0.157421	0	-0.315554	0	0	0
0.95	0	0	0	1.40417	0	-0.243658	0	0	0	0	0	0	0.163414	0	-0.318127	0	0	0
0.955	0	0	0	1.39581	0	-0.244287	0	0	0	0	0	0	0.170966	0	-0.321163	0	0	0
0.96	0	0	0	1.38502	0	-0.244899	0	0	0	0	0	0	0.179137	0	-0.325839	0	0	0
0.965	0	0	0	1.37206	0	-0.245697	0	0	0	0	0	0	0.190262	0	-0.329979	0	0	0
0.97	0	0	0	1.35684	0	-0.247567	0	0	0	0	0	0	0.201435	0	-0.333878	0	0	0
0.975	0	0	0	1.33958	0	-0.249905	0	0	0	0	0	0	0.21473	0	-0.337752	0	0	0
0.98	0	0	0	1.32033	0	-0.252751	0	0	0	0	0	0	0.229362	0	-0.342223	0	0	0
0.985	0	0	0	1.29947	0	-0.255887	0	0	0	0	0	0	0.24532	0	-0.345833	0	0	0
0.99	0	0	0	1.27696	0	-0.260162	0	0	0	0	0	0	0.261639	0	-0.348821	0	0	0
0.995	-47.9962	84.3861	-11.8259	1.25321	0	-0.263717	0	-1.23292	0	0	0	0	0.279134	0	-0.352068	0	0	0
1	-90.627	239.161	-28.0341	1.1339	0	-0.249309	0	-3.82442	0	0	0	0	0.297149	0	-0.355454	0	0	0
1.005	-146.019	468.581	-53.5764	1.09796	0	-0.261902	0	-7.20957	0	0	0	0	0.315879	0	-0.358866	0	0	0
1.01	-200.173	757.593	-82.2964	1.07475	0	-0.271679	0	-10.0092	0	0	0	0	0.335067	0	-0.362804	0	0	0
1.015	-232.324	1095.19	-102.637	1.0554	0	-0.279867	0	-8.5803	0	0	0	0	0.354582	0	-0.36546	0	0	0
1.02	-239.475	1467.09	-102.145	1.0363	0	-0.285908	0	0.884058	0	0	0	0	0.374978	0	-0.368697	0	0	0
1.025	-243.641	1834.93	-77.4919	1.01788	0	-0.289893	0	15.4796	0	0	0	0	0.395246	0	-0.371393	0	0	0
1.03	-269.509	2149.22	-31.2342	1.00436	0	-0.292175	0	25.9952	0	0	0	0	0.415769	0	-0.37421	0	0	0
1.035	-324.311	2384.86	34.2329	0.997282	0	-0.292953	0	28.7349	0	0	0	0	0.436687	0	-0.377657	0	0	0
1.04	-395.066	2551.73	109.85	0.99273	0	-0.292821	0	27.9766	0	0	0	0	0.457955	0	-0.380876	0	0	0
1.045	-453.559	2671.84	180.778	0.985179	0	-0.292274	0	24.8702	0	0	0	0	0.479815	0	-0.383311	0	0	0
1.05	-470.344	2760.2	230.553	0.970693	0	-0.291764	0	17.0685	0	0	0	0	0.502283	0	-0.384689	0	0	0
1.055	-431.298	2821.82	247.403	0.946651	0	-0.291447	0	6.08876	0	0	0	0	0.525541	0	-0.389706	0	0	0
1.06	-339.5	2854.64	226.15	0.913488	0	-0.291738	0	-4.34159	0	0	0	0	0.550157	0	-0.392182	0	0	0
1.065	-214.307	2856.97	175.953	0.875353	0	-0.292601	0	-8.91225	0	0	0	0	0.575932	0	-0.394649	0	0	0
1.07	-85.2178	2834.38	115.32	0.838104	0	-0.293638	0	-3.22138	0	0	0	0	0.60319	0	-0.397626	0	0	0
1.075	29.0311	2789.17	64.2712	0.804846	0	-0.294414	0	8.03039	0	0	0	0	0.631637	0	-0.400272	0	0	0
1.08	130.116	2721.51	33.924	0.775791	0	-0.2948	0	16.8118	0	0	0	0	0.660609	0	-0.402214	0	0	0
1.085	225.099	2631.03	21.9855	0.750015	0	-0.29478	0	21.7911	0	0	0	0	0.692008	0	-0.403271	0	0	0
1.09	309.856	2512.89	17.7697	0.726213	0	-0.294628	0	24.7435	0	0	0	0	0.725207	0	-0.404577	0	0	0
1.095	375.223	2359.03	14.49	0.703432	0	-0.294602	0	27.0931	0	0	0	0	0.757081	0	-0.404727	0	0	0
1.1	417.631	2166.44	15.3512	0.681639	0	-0.294615	0	30.518	0	0	0	0	0.790936	0	-0.404691	0	0	0
1.105	441.615	1935.95	29.1245	0.660207	0	-0.29425	0	30.2703	0	0	0	0	0.825022	0	-0.404181	0	0	0
1.11	452.24	1668.84	58.6842	0.635454	0	-0.293255	0	18.5764	0	0	0	0	0.859197	0	-0.402595	0	0	0
1.115	451.93	1367.93	98.163	0.59903	0	-0.291622	0	-6.10399	0	0	0	0	0.894061	0	-0.401286	0	0	0
1.12	441.954	1045.69	134.605	0.539391	0	-0.289636	0	-38.5144	0	0	0	0	0.928854	0	-0.399764	0	0	0
1.125	419.921	726.077	151.999	0.441565	0	-0.287864	0	-69.7796	0	0	0	0	0.964118	0	-0.398023	0	0	0
1.13	381.264	437.896	133.231	0.288024	0	-0.288198	0	-82.4382	0	0	0	0	0.998862	0	-0.396523	0	0	0
1.135	322.511	211.595	74.965	0.128036	0	-0.29201	0	-52.6196	0	0	0	0	1.03308	0	-0.395021	0	0	0
1.14	244.356	64.5573	-2.72273	0.378007	0	-0.280191	0	26.38	0	0	0	0	1.06755	0	-0.393263	0	0	0
1.145	0	0	0	0.354885	0	-0.278048	0	0	0	0	0	0	1.10152	0	-0.392359	0	0	0
1.15	0	0	0	0.333303	0	-0.275002	0	0	0	0	0	0	1.13533	0	-0.39204	0	0	0
1.155	0	0	0	0.312324	0	-0.2693	0	0	0	0	0	0	1.16869	0	-0.391652	0	0	0
1.16	0	0	0	0.291014	0	-0.266625	0	0	0	0	0	0	1.20181	0	-0.390749	0	0	0
1.165	0	0	0	0.272021	0	-0.263461	0	0	0	0	0	0	1.23432	0	-0.39004	0	0	0
1.17	0	0	0	0.250719	0	-0.261511	0	0	0	0	0	0	1.26582	0	-0.389361	0	0	0
1.175	0	0	0	0.230107	0	-0.257066	0	0	0	0	0	0	1.29599	0	-0.388883	0	0	0
1.18	0	0	0	0.212062	0	-0.255473	0	0	0	0	0	0	1.32418	0	-0.389075	0	0	0
1.185	0	0	0	0.198111	0	-0.25165	0	0	0	0	0	0	1.35015	0	-0.389557	0	0	0
1.19	0	0	0	0.18528	0	-0.252061	0	0	0	0	0	0	1.3733	0	-0.390579	0	0	0
1.195	0	0	0	0.173083	0	-0.250684	0	0	0	0	0	0	1.39393	0	-0.39153	0	0	0
1.2	0	0	0	0.160212	0	-0.25033	0	0	0	0	0	0	1.41131	0	-0.392233	0	0	0
1.205	0	0	0	0.149856	0	-0.249399	0	0	0	0	0	0	1.4251	0	-0.393162	0	0	0
1.21	0	0	0	0.140509	0	-0.249082	0	0	0	0	0	0	1.43546	0	-0.393701	0	0	0
1.215	0	0	0	0.132388	0	-0.248594	0	0	0	0	0	0	1.44233	0	-0.393925	0	0	0
1.22	0	0	0	0.125966	0	-0.24768	0	0	0	0	0	0	1.44557	0	-0.393825	0	0	0
1.225	0	0	0	0.121963	0	-0.246189	0	0	0	0	0	0	1.44658	0	-0.393577	0	0	0
1.23	0	0	0	0.119775	0	-0.247172	0	0	0	0	0	0	1.44566	0	-0.393224	0	0	0
1.235	0	0	0	0.120445	0	-0.247531	0	0	0	0	0	0	1.44288	0	-0.392355	0	0	0
1.24	0	0	0	0.124011	0	-0.247803	0	0	0	0	0	0	1.43733	0	-0.390137	0	0	0
1.245	0	0	0	0.129923	0	-0.248175	0	0	0	0	0	0	1.42966	0	-0.386762	0	0	0
1.25	0	0	0	0.138391	0	-0.248295	0	0	0	0	0	0	1.41971	0	-0.383016	0	0	0
1.255	0	0	0	0.145294	0	-0.250237	0	0	0	0	0	0	1.40744	0	-0.379078	0	0	0
1.26	0	0	0	0.160915	0	-0.249233	0	0	0	0	0	0	1.39317	0	-0.374827	0	0	0
1.265	0	0	0	0.174903	0	-0.248889	0	0	0	0	0	0	1.3767	0	-0.370098	0	0	0
1.27	0	0	0	0.190103	0	-0.248476	0	0	0	0	0	0	1.35879	0	-0.365375	0	0	0
1.275	0	0	0	0.20888	0	-0.246149	0	0	0	0	0	0	1.33873	0	-0.360631	0	0	0
1.28	0	0	0	0.223914	0	-0.246124	0	0	0	-38.9138	50.699	-9.1956	1.31724	0	-0.356034	0	-8.23197	0
1.285	0	0	0	0.241842	0	-0.244704	0	0	0	-88.8348	195.401	3.77904	1.14527	0	-0.404347	0	-8.35747	0
1.29	0	0	0	0.26074	0	-0.24281	0	0	0	-159.143	426.876	42.1265	1.09829	0	-0.398455	0	-6.74284	0
1.295	0	0	0	0.280199	0	-0.240808	0	0	0	-233.541	730.14	103.615	1.09692	0	-0.38063	0	-1.95521	0
1.3	0	0	0	0.300527	0	-0.238556	0	0	0	-282.621	1071.47	170.254	1.09235	0	-0.366092	0	3.29239	0
1.305	0	0	0	0.321227	0	-0.236198	0	0	0	-295.474	1435.38	210.768	1.08216	0	-0.354305	0	0.434283	0
1.31	0	0	0	0.342577	0	-0.233645	0	0	0	-300.96	1808.55	201.293	1.06499	0	-0.344493	0	-13.4896	0
1.315	0	0	0	0.364106	0	-0.231209	0	0	0	-325.695	2148.69	130.117	1.04961	0	-0.336921	0	-27.3998	0
1.32	0	0	0	0.386022	0	-0.229368	0	0	0	-372.894	2407.14	6.16831	1.04276	0	-0.332018	0	-31.8756	0
1.325	0	0	0	0.407904	0	-0.227129	0	0	0	-444.488	2576.43	-136.135	1.03867	0	-0.330049	0	-27.4825	0
1.33	0	0	0	0.429938	0	-0.224974	0	0	0	-517.765	2681.3	-244.274	1.03094	0	-0.329803	0	-15.3453	0
1.335	0	0	0	0.452137	0	-0.223088	0	0	0	-550.238	2755.56	-283.387	1.018	0	-0.329981	0	-1.56881	0
1.34	0	0	0	0.474687	0	-0.221221	0	0	0	-529.214	2825.28	-249.705	0.99708	0	-0.329742	0	4.40367	0
1.345	0	0	0	0.497726	0	-0.220098	0	0	0	-463.101	2885.38	-169.683	0.968012	0	-0.329396	0	1.35494	0
1.35	0	0	0	0.521595	0	-0.218885	0	0	0	-363.108	2912.6	-80.6213	0.934395	0	-0.3297	0	-1.38594	0
1.355	0	0	0	0.546449	0	-0.217703	0	0	0	-249.375	2900.6	-9.28766	0.89855	0	-0.330769	0	1.46579	0
1.36	0	0	0	0.572585	0	-0.216763	0	0	0	-140.379	2860.53	32.9665	0.862973	0	-0.331979	0	4.29289	0
1.365	0	0	0	0.599937	0	-0.215146	0	0	0	-38.4009	2803.56	54.6073	0.830284	0	-0.332246	0	-0.700331	0
1.37	0	0	0	0.628465	0	-0.214622	0	0	0	58.7576	2733.52	69.5739	0.800936	0	-0.331172	0	-14.6827	0
